PathFileType	4	(X/Y/Z)	C:\Users\chris\Documents\GitHub\baseballds\vids\pitch5_Sports2D\pitch5_Sports2D_m_person04.trc
DataRate	CameraRate	NumFrames	NumMarkers	Units	OrigDataRate	OrigDataStartFrame	OrigNumFrames
30	30	6	22	m	30	74	149
Frame#	Time	Hip			RHip			RKnee			RAnkle			RBigToe			RSmallToe			RHeel			LHip			LKnee			LAnkle			LBigToe			LSmallToe			LHeel			Neck			Head			Nose			RShoulder			RElbow			RWrist			LShoulder			LElbow			LWrist		
		X1	Y1	Z1	X2	Y2	Z2	X3	Y3	Z3	X4	Y4	Z4	X5	Y5	Z5	X6	Y6	Z6	X7	Y7	Z7	X8	Y8	Z8	X9	Y9	Z9	X10	Y10	Z10	X11	Y11	Z11	X12	Y12	Z12	X13	Y13	Z13	X14	Y14	Z14	X15	Y15	Z15	X16	Y16	Z16	X17	Y17	Z17	X18	Y18	Z18	X19	Y19	Z19	X20	Y20	Z20	X21	Y21	Z21	X22	Y22	Z22
74	2.466666666666667	2.6763199729497473	1.2842995570086644	0.0	2.6697640541176573	1.281863991117582	0.0	2.672920738992905	1.2591393648835205	0.0	2.676193213312662	1.2369790669288214	0.0	2.675253462976703	1.2329291918297904	0.0	2.6718465058798566	1.233439844768989	0.0	2.6786618551476753	1.2355362018239042	0.0	2.684807809958222	1.2831641344123517	0.0	2.6854105592072144	1.260797190678736	0.0	2.689013533488075	1.2364585455036794	0.0	2.6876255193423653	1.2328947294302712	0.0	2.686329921995788	1.2345207122396167	0.0	2.68909076682447	1.2355005845636498	0.0	2.674854057135274	1.3230778198953106	0.0	2.67288753646562	1.3417456510673522	0.0	2.672712091009909	1.331475780730269	0.0	2.664257352459996	1.3183320373240253	0.0	2.656959662775847	1.3043170972006608	0.0	2.6493149469564976	1.2896353602642203	0.0	2.6870606034013846	1.319775441891897	0.0	2.6962895829738156	1.304963840263947	0.0	2.7027065881031875	1.2890953700793237	0.0
75	2.5	2.6771652900371743	1.2841960411333049	0.0	2.6706532878189484	1.2819194711325888	0.0	2.67361211578377	1.258958742100344	0.0	2.6766439144217182	1.2369248837521292	0.0	2.674237286066943	1.232841000426734	0.0	2.670563355906416	1.233478417527288	0.0	2.6793423887460333	1.2353095109465526	0.0	2.685636649159628	1.283052871149012	0.0	2.6865033219091505	1.2607026554183325	0.0	2.6903043640038726	1.236653557121713	0.0	2.688634315989288	1.232673611662781	0.0	2.6867816259776793	1.234645287964827	0.0	2.6906019502021863	1.2356956326205601	0.0	2.6755036197843634	1.3229310837294606	0.0	2.6735941677808204	1.3417041718730451	0.0	2.6734849996722048	1.331562216739787	0.0	2.6649817016970108	1.318136501688695	0.0	2.6577911288003175	1.3039430179522609	0.0	2.6496935636597905	1.2891940698536197	0.0	2.6877197093252065	1.3195441445371965	0.0	2.69602838892853	1.304509566088953	0.0	2.7008304927383353	1.2887023019399195	0.0
76	2.533333333333333	2.6779141424370225	1.284113871951027	0.0	2.6713739158562184	1.281909944440738	0.0	2.6742482976378184	1.258668363081164	0.0	2.6771077886425627	1.2367963507176367	0.0	2.6733403050547953	1.2328592216176446	0.0	2.670966874688649	1.2336005395554803	0.0	2.6798006647347785	1.234895137177772	0.0	2.686365783167748	1.2829464215049622	0.0	2.687721703892722	1.2605042465867837	0.0	2.6920063813693025	1.2368575211482145	0.0	2.689204851217147	1.2324256765067476	0.0	2.688190436560435	1.2349532418477192	0.0	2.6928028410897777	1.2359573048515013	0.0	2.676135315404883	1.3226235104003992	0.0	2.67428811281192	1.341838201723005	0.0	2.6742581019635003	1.3313826823927912	0.0	2.6656648882350824	1.3180163664295483	0.0	2.658655871686569	1.303786369468317	0.0	2.6500256623599774	1.2887307411900626	0.0	2.688144972509687	1.3193587497524861	0.0	2.6954592963174777	1.3043288547845333	0.0	2.698891865614379	1.2889367089732062	0.0
77	2.5666666666666664	2.678535602993249	1.2837561182791042	0.0	2.6718402026533323	1.2815571548373665	0.0	2.674778954074896	1.2578413517709366	0.0	2.67742806490809	1.2363516561901016	0.0	2.6725676022481943	1.232773553119331	0.0	2.673318722872579	1.233826461556703	0.0	2.679879373842998	1.234535835654865	0.0	2.6869562522591934	1.2825829939228668	0.0	2.6889096167349886	1.2597551587981097	0.0	2.6937242842480527	1.2366403804313406	0.0	2.689942958302831	1.2322552968911378	0.0	2.6909924020377236	1.2350034812403075	0.0	2.6950313805199038	1.2359870439219078	0.0	2.67670793095163	1.322159304310537	0.0	2.674953017615713	1.3419215401122857	0.0	2.6749076288832256	1.3308703081774742	0.0	2.6661890160268578	1.3179492799761463	0.0	2.6593007365023245	1.3036594855623482	0.0	2.6504383919759844	1.288397476060506	0.0	2.6885754955941668	1.3192163339866216	0.0	2.6948201115737733	1.3040163108988585	0.0	2.697182938194819	1.2889887055580127	0.0
78	2.6	2.6791530947580156	1.283294647000376	0.0	2.6722227839957284	1.280988082137329	0.0	2.6752367880033696	1.2569759163875676	0.0	2.6776426195937324	1.235694246752887	0.0	2.6720589548198603	1.2324396309579249	0.0	2.6752018676593656	1.2336015268298894	0.0	2.679732321341144	1.2340922943802188	0.0	2.687538195850211	1.2820632704848034	0.0	2.689980604358723	1.2588292467343527	0.0	2.6949517978557216	1.236148055668218	0.0	2.6910263529795984	1.2319536405767768	0.0	2.694614007256016	1.2347146336457289	0.0	2.6963604012376265	1.2357830778751548	0.0	2.6773380590373486	1.3217539516984893	0.0	2.675757770189358	1.3417270413873335	0.0	2.675613768625249	1.3303351675969284	0.0	2.6666716849839918	1.31772653697975	0.0	2.65985403881451	1.3033673457508945	0.0	2.6511197859461575	1.2881784683769775	0.0	2.689238381764086	1.3189242755262505	0.0	2.6946618733097805	1.3035589837878787	0.0	2.696264247218801	1.2885161460826016	0.0
79	2.6333333333333333	2.6799291944599286	1.2829757849137928	0.0	2.672808620592089	1.2804600051831725	0.0	2.6757758125892077	1.2565552783341867	0.0	2.6779934878167118	1.2349363759442	0.0	2.673810830726561	1.231970679393534	0.0	2.6755781662667744	1.2326309517553862	0.0	2.679810811688255	1.2334095783963892	0.0	2.688307104990101	1.2816133568626087	0.0	2.6910141389207123	1.258236135803974	0.0	2.6957178760519427	1.2356405612325845	0.0	2.6924982573260534	1.2313058611275391	0.0	2.6981924864937605	1.234279084397369	0.0	2.696717810324821	1.2354243559990539	0.0	2.678177711781841	1.3215001786555967	0.0	2.676812987906896	1.3412625954155755	0.0	2.6766200029345395	1.329977978533734	0.0	2.6673177252920612	1.3172409570845127	0.0	2.6606652345672708	1.3028867918863942	0.0	2.6523504696425326	1.2879329782876894	0.0	2.6902109886890395	1.318365127537311	0.0	2.6953778298618767	1.3031155525725755	0.0	2.6965907370207445	1.2877570594931151	0.0
